<?xml version="1.0" encoding="utf-8"?>
<!-- Generator: Adobe Illustrator 18.0.0, SVG Export Plug-In . SVG Version: 6.00 Build 0)  -->
<!DOCTYPE svg PUBLIC "-//W3C//DTD SVG 1.1//EN" "http://www.w3.org/Graphics/SVG/1.1/DTD/svg11.dtd">
<svg version="1.1" id="Capa_1" xmlns="http://www.w3.org/2000/svg" xmlns:xlink="http://www.w3.org/1999/xlink" x="0px" y="0px"
	 viewBox="0 0 1152 864" enable-background="new 0 0 1152 864" xml:space="preserve">
<g>
	<path fill="#3E3E67" stroke="#CB7FFF" stroke-miterlimit="10" d="M849.7,158.3C776.6,85.2,679.4,44.9,576,44.9
		c-103.4,0-200.6,40.3-273.7,113.4c-150.9,150.9-150.9,396.5,0,547.5c73.1,73.1,170.3,113.4,273.7,113.4
		c103.4,0,200.6-40.3,273.7-113.4C1000.7,554.8,1000.7,309.2,849.7,158.3z M935.3,418.3h-81.6c-2.4-47.8-17-94.7-42.7-135.1
		l-23.1,14.7c22.9,36.1,36.1,77.8,38.4,120.5h-96.5c-3.2-36.1-18.7-69.5-44.6-95.4c-25.9-25.9-59.4-41.4-95.4-44.6v-96.5
		c42.7,2.4,84.4,15.5,120.5,38.5l14.7-23.1c-40.5-25.7-87.3-40.3-135.2-42.7V72.6c90.9,3.4,176,40.4,240.7,105.1
		C897,244.3,932,330.8,935.3,418.3z M298.3,445.7c3.1,64.6,28.2,125.2,71.7,173l-57.8,57.8c-60.5-65.2-92.3-147.6-95.4-230.8H298.3z
		 M562.3,558.2c-24.2-2.6-46.9-12-65.9-27.3l65.9-65.9V558.2z M589.7,465.1l65.9,65.9c-18.9,15.3-41.7,24.7-65.9,27.3V465.1
		L589.7,465.1z M477,313.6l-68.3-68.3c39.2-35.1,88.8-57.2,141.1-62.7c4.2-0.4,8.3-0.7,12.5-1v96.6C530.8,281,501.2,293.3,477,313.6
		z M562.3,305.8v93.2l-65.9-65.9C515.4,317.8,538.1,308.4,562.3,305.8z M542.9,418.3h-93.1c2.5-23.5,11.6-46.5,27.2-65.9
		L542.9,418.3z M543,445.7l-65.9,65.9c-15.6-19.4-24.7-42.4-27.2-65.9H543z M477,550.4c24.2,20.3,53.8,32.6,85.3,35.3v96.6
		c-57.3-3.1-111-25.3-153.6-63.6L477,550.4z M589.7,585.7c31.5-2.8,61.1-15,85.3-35.3l68.3,68.3c-42.7,38.3-96.3,60.6-153.6,63.6
		L589.7,585.7L589.7,585.7z M609,445.7h93.2c-2.6,24.2-12,46.9-27.3,65.9L609,445.7z M589.7,418.3V305.8
		c28.7,3.1,55.4,15.7,76.1,36.4c20.7,20.7,33.4,47.3,36.4,76.1L589.7,418.3L589.7,418.3z M562.3,154.3c-5.1,0.2-10.2,0.6-15.3,1.1
		c-58.6,6.1-114.1,31-157.7,70.5l-57.8-57.8c63.4-58.8,144.4-92.4,230.8-95.6L562.3,154.3L562.3,154.3z M457.6,333
		c-20.8,24.8-32.6,54.7-35.3,85.3h-96.7c3.1-57.3,25.3-111,63.6-153.6L457.6,333z M422.4,445.7c2.7,30.6,14.5,60.5,35.3,85.3
		l-68.3,68.3c-38.3-42.7-60.6-96.4-63.6-153.6L422.4,445.7L422.4,445.7z M389.3,638.1c47.9,43.5,108.4,68.6,173,71.7v81.7
		c-86.4-3.2-167.4-36.8-230.8-95.6L389.3,638.1z M589.7,709.7c64.6-3.1,125.1-28.2,173-71.7l57.8,57.8
		c-63.4,58.8-144.4,92.4-230.8,95.6L589.7,709.7L589.7,709.7z M694.4,531c20.4-24.2,32.6-53.8,35.3-85.3h96.6
		c-0.2,4.2-0.5,8.3-1,12.5c-5.5,52.3-27.6,101.9-62.7,141.1L694.4,531z M312.2,187.5l57.8,57.8c-43.5,47.9-68.6,108.4-71.7,173
		h-81.5C219.9,335.1,251.7,252.7,312.2,187.5z M839.8,676.5L782,618.7c39.5-43.6,64.4-99.1,70.5-157.6c0.5-5.1,0.9-10.2,1.1-15.3
		h81.6C932.1,528.9,900.3,611.3,839.8,676.5z"/>
	<path fill="#3E3E67" stroke="#CB7FFF" stroke-miterlimit="10" d="M881.5,126.5C799.9,44.9,691.4,0,576,0S352.1,44.9,270.5,126.5
		C102.1,295,102.1,569,270.5,737.5C352.1,819.1,460.6,864,576,864s223.9-44.9,305.5-126.5C1049.9,569,1049.9,295,881.5,126.5z
		 M862.1,718.1c-76.4,76.4-178,118.5-286.1,118.5c-108.1,0-209.7-42.1-286.1-118.5c-157.8-157.8-157.8-414.5,0-572.2
		C366.3,69.5,467.9,27.4,576,27.4c108.1,0,209.7,42.1,286.1,118.5C1019.9,303.7,1019.9,560.3,862.1,718.1z"/>
	<circle fill="#3E3E67" stroke="#CB7FFF" stroke-miterlimit="10" cx="763.3" cy="244.7" r="24.3"/>
</g>
</svg>
