<?xml version="1.0" encoding="utf-8"?>
<!-- Generator: Adobe Illustrator 18.0.0, SVG Export Plug-In . SVG Version: 6.00 Build 0)  -->
<!DOCTYPE svg PUBLIC "-//W3C//DTD SVG 1.1//EN" "http://www.w3.org/Graphics/SVG/1.1/DTD/svg11.dtd">
<svg version="1.1" id="Capa_1" xmlns="http://www.w3.org/2000/svg" xmlns:xlink="http://www.w3.org/1999/xlink" x="0px" y="0px"
	 viewBox="0 0 1152 864" enable-background="new 0 0 1152 864" xml:space="preserve">
<g>
	<g>
		<g>
			<path fill="#3E3E67" d="M576,460c-25.7,0-46.7,20.9-46.7,46.7s21,46.7,46.7,46.7c25.7,0,46.7-21,46.7-46.7S601.7,460,576,460z"/>
		</g>
		<g>
			<path fill="#3E3E67" d="M689.4,527.9c54-62.7,135.8-95,243-96.5c-0.7-35.8-6.7-70.2-17.2-102.7C799.7,406,686,432.1,585.5,432.1
				c-177.6,0-314.3-81-348.7-103.4c-10.1,31.2-15.8,64.3-16.9,98.6c111,0,195.3,32.6,250.6,96.8c87.2,101.4,72.9,246,69.9,269.2
				c11.7,1.2,23.6,1.8,35.7,1.8c14.5,0,28.8-1,42.9-2.7C615.3,759,606.7,624,689.4,527.9z M892.2,376.6l5.9,13.7l-112.9,48.5
				l-5.9-13.7L892.2,376.6z M374.6,438.8l-112.9-48.5l5.9-13.7l112.9,48.6L374.6,438.8z M514.4,506.7c0-34,27.6-61.6,61.6-61.6
				c34,0,61.6,27.6,61.6,61.6c0,34-27.7,61.6-61.6,61.6C542,568.3,514.4,540.7,514.4,506.7z"/>
		</g>
		<g>
			<path fill="#3E3E67" d="M576,0C337.8,0,144,193.8,144,432c0,238.2,193.8,432,432,432s432-193.8,432-432S814.2,0,576,0z M576,810
				c-204.8,0-371.5-166.6-371.5-371.5S371.2,67,576,67c204.8,0,371.5,166.7,371.5,371.5S780.8,810,576,810z"/>
		</g>
	</g>
</g>
</svg>
